<svg xmlns="http://www.w3.org/2000/svg" width="512" height="512" viewBox="0 0 512 512" fill="none">
  <rect width="512" height="512" rx="96" fill="#18E35F"/>
  <path d="M114 285V206C114 181.7 133.7 162 158 162H354C378.3 162 398 181.7 398 206V285H366V246H146V285H114ZM162 211C154.3 211 148 217.3 148 225C148 232.7 154.3 239 162 239C169.7 239 176 232.7 176 225C176 217.3 169.7 211 162 211ZM350 211C342.3 211 336 217.3 336 225C336 232.7 342.3 239 350 239C357.7 239 364 232.7 364 225C364 217.3 357.7 211 350 211ZM170 326C170 338.2 160.2 348 148 348C135.8 348 126 338.2 126 326C126 313.8 135.8 304 148 304C160.2 304 170 313.8 170 326ZM386 326C386 338.2 376.2 348 364 348C351.8 348 342 338.2 342 326C342 313.8 351.8 304 364 304C376.2 304 386 313.8 386 326Z" fill="#091224"/>
</svg>
